<svg id="Layer_1" data-name="Layer 1" xmlns="http://www.w3.org/2000/svg" viewBox="0 0 1024 1024"><defs><style>.cls-1{fill:#0a0f14;}.cls-2{fill:#98d1ce;}</style></defs><rect class="cls-1" width="1024" height="1024"/><path class="cls-2" d="M244.06,329.71q-19.92,8.69-45.57,8.69-21.93,0-40-7.22a92,92,0,0,1-31-20.05,90.58,90.58,0,0,1-20.18-30.47,100.7,100.7,0,0,1-7.22-38.48v-.54a95.65,95.65,0,0,1,58.81-89.14,99.28,99.28,0,0,1,39.29-7.62,137.64,137.64,0,0,1,22.85,1.74,108.9,108.9,0,0,1,19.11,4.95,89,89,0,0,1,16.57,8,124.51,124.51,0,0,1,15,11l-25.93,31.28a103.78,103.78,0,0,0-10.69-8A69,69,0,0,0,224,187.92a65.55,65.55,0,0,0-12.43-3.75,75.89,75.89,0,0,0-14.7-1.33,47.74,47.74,0,0,0-21,4.69,56.51,56.51,0,0,0-17.11,12.59A57.75,57.75,0,0,0,147.3,218.6a61.64,61.64,0,0,0-4.14,22.64v.53a65.94,65.94,0,0,0,4.14,23.71,56.25,56.25,0,0,0,11.76,18.89A53.54,53.54,0,0,0,177,296.83a57.24,57.24,0,0,0,22.85,4.42q23,0,38.76-11.31V263H197.15V227.47H278.4v81.26A136.91,136.91,0,0,1,244.06,329.71Z"/><path class="cls-2" d="M501.05,279.19a95.68,95.68,0,0,1-52.25,51.59,108.25,108.25,0,0,1-79.79,0,99,99,0,0,1-31.4-20.58A92.09,92.09,0,0,1,317,279.73a96,96,0,0,1-7.35-37.55v-.54a94.51,94.51,0,0,1,7.49-37.55,95.68,95.68,0,0,1,52.25-51.59,108.25,108.25,0,0,1,79.79,0,99.14,99.14,0,0,1,31.4,20.58,92.17,92.17,0,0,1,20.58,30.47,96.06,96.06,0,0,1,7.35,37.56v.53A94.47,94.47,0,0,1,501.05,279.19ZM465.5,241.64a62.37,62.37,0,0,0-4.14-22.72,56,56,0,0,0-29.8-31.4,54.86,54.86,0,0,0-22.72-4.68A56,56,0,0,0,386,187.38a52.34,52.34,0,0,0-17.64,12.56,59.22,59.22,0,0,0-11.49,18.58,61.33,61.33,0,0,0-4.14,22.59v.53a62.33,62.33,0,0,0,4.14,22.72,56.43,56.43,0,0,0,29.67,31.41,54.53,54.53,0,0,0,22.85,4.67,56.22,56.22,0,0,0,22.72-4.54,52.13,52.13,0,0,0,17.78-12.56,59.59,59.59,0,0,0,11.49-18.58,61.32,61.32,0,0,0,4.14-22.58Z"/><path class="cls-2" d="M433.69,453.33V602.47H392.52V453.33H335.59V415.38h155v37.95Z"/><path class="cls-2" d="M639.23,602.47v-75.1H563.32v75.1H522.16V415.38h41.16v74h75.91v-74h41.16V602.47Z"/><path class="cls-2" d="M656.59,869.76l-17.1-42H560.37l-17.11,42h-42l80.19-188.44h38l80.19,188.44Zm-56.66-139-24.86,60.67h49.72Z"/><path class="cls-2" d="M875,869.76V747.61l-52.65,79.92h-1.07l-52.12-79.12V869.76H728.49V682.66h44.37L822,761.78l49.18-79.12h44.37v187.1Z"/></svg>